<?xml version="1.0" encoding="iso-8859-1"?>
<!-- Generator: Adobe Illustrator 19.0.0, SVG Export Plug-In . SVG Version: 6.00 Build 0)  -->
<svg version="1.1" id="Capa_1" xmlns="http://www.w3.org/2000/svg" xmlns:xlink="http://www.w3.org/1999/xlink" x="0px" y="0px"
	 viewBox="0 0 512 512" style="enable-background:new 0 0 512 512;" xml:space="preserve">
<rect x="7.598" y="113.165" style="fill:#FFEA92;" width="374.82" height="391.028"/>
<polygon style="fill:#FDD844;" points="382.418,242.294 382.418,386.275 323.885,444.808 240.047,456.113 251.96,372.761 "/>
<polygon style="fill:#FFFFFF;" points="271.057,382.309 263.894,432.451 314.394,425.646 319.408,420.632 276.071,377.295 "/>
<rect x="264.956" y="289.164" transform="matrix(-0.7071 0.7071 -0.7071 -0.7071 869.5373 279.4404)" style="fill:#4A8CFF;" width="223.877" height="61.288"/>
<path style="fill:#FFFFFF;" d="M495.622,244.418c11.869-11.869,11.51-31.469-0.359-43.337l0,0
	c-11.869-11.869-31.111-11.869-42.979,0l-17.908,17.908l43.337,43.337L495.622,244.418z"/>
<path style="fill:#00E676;" d="M352.027,7.808H37.989c-16.785,0-30.391,13.606-30.391,30.391v74.964h374.82V38.199
	C382.418,21.414,368.812,7.808,352.027,7.808z M73.444,82.772c-11.19,0-20.261-9.071-20.261-20.261s9.071-20.261,20.261-20.261
	s20.261,9.071,20.261,20.261S84.634,82.772,73.444,82.772z M154.487,82.772c-11.19,0-20.261-9.071-20.261-20.261
	s9.071-20.261,20.261-20.261c11.19,0,20.261,9.071,20.261,20.261S165.677,82.772,154.487,82.772z M235.529,82.772
	c-11.19,0-20.261-9.071-20.261-20.261s9.071-20.261,20.261-20.261c11.19,0,20.261,9.071,20.261,20.261
	S246.719,82.772,235.529,82.772z M316.571,82.772c-11.19,0-20.261-9.071-20.261-20.261s9.071-20.261,20.261-20.261
	s20.261,9.071,20.261,20.261S327.761,82.772,316.571,82.772z"/>
<rect x="7.598" y="113.165" style="fill:#FDD844;" width="374.82" height="20.261"/>
<path d="M500.637,195.707c-14.812-14.811-38.912-14.811-53.724,0l-56.898,56.898V38.199c0-20.947-17.041-37.989-37.989-37.989
	H37.989C17.041,0.211,0,17.252,0,38.199v473.59h390.015v-151.02l110.979-110.98C515.807,234.978,515.646,210.717,500.637,195.707z
	 M277.683,389.65l29.324,29.324l-34.171,4.604L277.683,389.65z M319.408,409.887l-32.592-32.592l147.562-147.562l32.592,32.593
	L319.408,409.887z M316.571,49.849c6.983,0,12.663,5.68,12.663,12.663s-5.68,12.663-12.663,12.663s-12.663-5.681-12.663-12.663
	S309.588,49.849,316.571,49.849z M235.529,49.849c6.983,0,12.663,5.68,12.663,12.663s-5.68,12.663-12.663,12.663
	s-12.663-5.681-12.663-12.663S228.546,49.849,235.529,49.849z M154.487,49.849c6.983,0,12.663,5.68,12.663,12.663
	s-5.68,12.663-12.663,12.663c-6.983,0-12.663-5.681-12.663-12.663S147.504,49.849,154.487,49.849z M73.444,49.849
	c6.983,0,12.663,5.68,12.663,12.663s-5.68,12.663-12.663,12.663c-6.983,0-12.663-5.681-12.663-12.663S66.462,49.849,73.444,49.849z
	 M374.82,496.594H15.195V38.199c0-12.569,10.224-22.793,22.793-22.793h27.858v20.309c-11.678,3.317-20.261,14.069-20.261,26.797
	c0,15.362,12.497,27.858,27.858,27.858s27.858-12.497,27.858-27.858c0-12.727-8.582-23.48-20.261-26.797V15.406h65.847v20.309
	c-11.678,3.317-20.261,14.069-20.261,26.797c0,15.362,12.497,27.858,27.858,27.858s27.858-12.497,27.858-27.858
	c0-12.727-8.582-23.48-20.261-26.797V15.406h65.847v20.309c-11.678,3.317-20.261,14.069-20.261,26.797
	c0,15.362,12.497,27.858,27.858,27.858s27.858-12.497,27.858-27.858c0-12.727-8.582-23.48-20.261-26.797V15.406h65.847v20.309
	c-11.678,3.317-20.261,14.069-20.261,26.797c0,15.362,12.497,27.858,27.858,27.858s27.858-12.497,27.858-27.858
	c0-12.727-8.582-23.48-20.261-26.797V15.406h27.858c12.569,0,22.793,10.224,22.793,22.793v229.602L263.894,378.727l-8.942,62.595
	l63-8.489l56.868-56.867V496.594z M490.25,239.045l-12.536,12.536l-32.592-32.593l12.536-12.536c8.886-8.886,23.347-8.887,32.235,0
	C498.823,215.383,498.987,230.308,490.25,239.045z"/>
<rect x="136.759" y="105.567" width="15.195" height="15.195"/>
<rect x="170.189" y="105.567" width="15.195" height="15.195"/>
<rect x="36.469" y="105.567" width="15.195" height="15.195"/>
<rect x="270.478" y="105.567" width="15.195" height="15.195"/>
<rect x="203.618" y="105.567" width="15.195" height="15.195"/>
<rect x="237.048" y="105.567" width="15.195" height="15.195"/>
<rect x="337.338" y="105.567" width="15.195" height="15.195"/>
<rect x="69.899" y="105.567" width="15.195" height="15.195"/>
<rect x="303.908" y="105.567" width="15.195" height="15.195"/>
<rect x="103.329" y="105.567" width="15.195" height="15.195"/>
<rect x="187.917" y="169.388" width="30.391" height="15.195"/>
<rect x="233.503" y="169.388" width="83.068" height="15.195"/>
<rect x="111.939" y="169.388" width="60.782" height="15.195"/>
<rect x="37.989" y="220.647" width="60.782" height="15.195"/>
<rect x="113.966" y="220.647" width="162.084" height="15.195"/>
<rect x="308.467" y="271.906" width="23.3" height="15.195"/>
<rect x="166.643" y="271.906" width="60.782" height="15.195"/>
<rect x="242.62" y="271.906" width="50.651" height="15.195"/>
<rect x="37.989" y="271.906" width="42.547" height="15.195"/>
<rect x="113.966" y="323.166" width="167.149" height="15.195"/>
<rect x="37.989" y="323.166" width="60.782" height="15.195"/>
<rect x="154.487" y="425.684" width="85.094" height="15.195"/>
<rect x="37.989" y="425.684" width="53.69" height="15.195"/>
<rect x="84.588" y="374.425" width="30.391" height="15.195"/>
<rect x="130.174" y="374.425" width="81.042" height="15.195"/>
<rect x="226.412" y="374.425" width="29.378" height="15.195"/>
<g>
	<rect x="37.989" y="169.388" style="fill:#FFFFFF;" width="60.782" height="15.195"/>
	<rect x="289.219" y="220.647" style="fill:#FFFFFF;" width="60.782" height="15.195"/>
	<rect x="95.731" y="271.906" style="fill:#FFFFFF;" width="54.703" height="15.195"/>
	<rect x="37.989" y="374.425" style="fill:#FFFFFF;" width="30.391" height="15.195"/>
	<rect x="106.874" y="425.684" style="fill:#FFFFFF;" width="32.417" height="15.195"/>
	<path style="fill:#FFFFFF;" d="M378.673,327.219l-10.744-10.744l42.979-42.979l10.744,10.744L378.673,327.219z M432.396,273.495
		l-10.744-10.744l11.616-11.616l10.744,10.744L432.396,273.495z"/>
	<rect x="332.779" y="169.388" style="fill:#FFFFFF;" width="19.248" height="15.195"/>
</g>
<g>
</g>
<g>
</g>
<g>
</g>
<g>
</g>
<g>
</g>
<g>
</g>
<g>
</g>
<g>
</g>
<g>
</g>
<g>
</g>
<g>
</g>
<g>
</g>
<g>
</g>
<g>
</g>
<g>
</g>
</svg>
